<?xml version="1.0" encoding="UTF-8" standalone="no"?>
<!-- Created with Inkscape (http://www.inkscape.org/) -->

<svg
   width="200"
   height="200"
   viewBox="0 0 52.916667 52.916666"
   version="1.1"
   id="svg1"
   xmlns="http://www.w3.org/2000/svg"
   xmlns:svg="http://www.w3.org/2000/svg">
  <defs
     id="defs1" />
  <g
     id="layer1"
     style="display:inline">
    <path
       id="path1"
       style="fill:#ffffff;fill-opacity:1;stroke:none;stroke-width:2.87559"
       d="m 18.795235,0.5519043 c -1.270156,0.0437203 -1.910735,0.809703 -1.270207,2.5605672 0,3.1631521 -1.131228,6.9578005 -6.019787,11.8463055 -6.3262934,6.326293 -9.4893434,12.940231 -9.4893434,19.266524 0,8.339212 5.7508578,18.691365 17.2532104,18.691365 -3.51979,-4.026669 0.545703,-3.574458 0.545703,-3.574458 5.594834,4.208131 10.956841,3.574458 16.708024,3.574458 4.888505,0 14.377934,-3.450466 14.377934,-18.403527 0,-8.914333 -1.837586,-18.096863 -5.000728,-22.122681 -5.041408,-6.2513253 -7.976844,-7.8313338 -7.044532,-2.191597 l 1.059884,3.289205 c 0.506826,3.616498 0.09751,3.059459 0.120923,6.048209 C 38.691515,15.914835 35.431194,11.026351 32.916337,8.1359375 29.382951,3.8710918 27.196975,4.2251384 22.596037,1.6371094 21.152062,0.9207862 19.783134,0.51789959 18.795235,0.5519043 Z M 18.044377,21.279321 c 1.505186,0 2.82229,0.294154 3.95118,0.882117 1.152408,0.587963 2.034351,1.410766 2.645833,2.4691 0.635001,1.058334 0.952397,2.281433 0.952397,3.669027 v 0.77618 c 0,0.16463 -0.047,0.294016 -0.141077,0.38809 -0.09408,0.09407 -0.223461,0.141076 -0.38809,0.141076 h -5.467883 c -0.16463,0 -0.294016,-0.047 -0.38809,-0.141076 -0.09407,-0.09407 -0.141077,-0.22346 -0.141077,-0.38809 v -0.917257 c 0,-0.352778 -0.094,-0.634793 -0.282153,-0.84646 -0.188148,-0.235185 -0.435299,-0.35295 -0.74104,-0.35295 -0.305741,0 -0.552376,0.117765 -0.740524,0.35295 -0.16463,0.235185 -0.247013,0.552581 -0.247013,0.952397 0,0.47037 0.18801,0.928774 0.564307,1.375626 0.376296,0.423334 1.128854,1.046504 2.257743,1.869653 1.505186,1.105371 2.63428,1.999453 3.386873,2.681491 0.776112,0.682038 1.375523,1.457837 1.798857,2.328023 0.446852,0.846667 0.67076,1.846375 0.67076,2.998783 0,2.140187 -0.693933,3.844932 -2.081527,5.114933 -1.387593,1.270001 -3.21062,1.90531 -5.4684,1.90531 -1.505186,0 -2.821774,-0.282532 -3.950663,-0.846976 C 13.1059,45.126822 12.223957,44.351022 11.588957,43.363244 10.977475,42.351947 10.6717,41.199611 10.6717,39.906091 v -1.19941 c 0,-0.16463 0.047,-0.294016 0.141077,-0.38809 0.09407,-0.09407 0.22346,-0.141076 0.38809,-0.141076 h 5.503023 c 0.16463,0 0.294016,0.047 0.38809,0.141076 0.09407,0.09407 0.141077,0.22346 0.141077,0.38809 v 0.8816 c 0,0.376297 0.09401,0.682071 0.282153,0.917257 0.188149,0.235185 0.423678,0.35295 0.7059,0.35295 0.282223,0 0.517235,-0.105627 0.705383,-0.317293 0.188149,-0.211668 0.282154,-0.482578 0.282154,-0.811837 0,-0.399815 -0.18801,-0.787457 -0.564307,-1.163753 -0.376297,-0.399816 -1.164235,-1.023503 -2.36368,-1.870171 -1.175927,-0.823148 -2.151875,-1.575706 -2.927987,-2.257743 -0.752593,-0.682037 -1.411145,-1.540221 -1.97559,-2.575036 -0.564444,-1.034816 -0.84646,-2.222534 -0.84646,-3.56309 0,-1.387594 0.305776,-2.610693 0.917257,-3.669027 0.635001,-1.058334 1.516943,-1.881137 2.645833,-2.4691 1.152408,-0.587963 2.468996,-0.882117 3.950664,-0.882117 z m 16.61604,0 c 1.528704,0 2.869052,0.294154 4.02146,0.882117 1.175926,0.587963 2.081629,1.434525 2.71663,2.539897 0.658518,1.081852 0.987536,2.351954 0.987536,3.810103 v 1.163753 c 0,0.164629 -0.047,0.294015 -0.141076,0.38809 -0.09407,0.09407 -0.223461,0.141077 -0.388091,0.141077 h -5.573819 c -0.16463,0 -0.294016,-0.047 -0.38809,-0.141077 -0.09407,-0.09408 -0.141077,-0.223461 -0.141077,-0.38809 v -1.23455 c 0,-0.446852 -0.105626,-0.799629 -0.317293,-1.058333 -0.188148,-0.282223 -0.446921,-0.42323 -0.77618,-0.42323 -0.32926,0 -0.599653,0.141007 -0.81132,0.42323 -0.188148,0.258704 -0.282154,0.611481 -0.282154,1.058333 v 10.936284 c 0,0.446852 0.09401,0.81125 0.282154,1.093473 0.211667,0.258704 0.48206,0.38809 0.81132,0.38809 0.329259,0 0.588032,-0.129386 0.77618,-0.38809 0.211667,-0.282223 0.317293,-0.646621 0.317293,-1.093473 v -1.728577 c 0,-0.141111 -0.07024,-0.211874 -0.211357,-0.211874 H 35.26038 c -0.164629,0 -0.294016,-0.047 -0.38809,-0.141076 -0.09407,-0.09407 -0.141077,-0.22346 -0.141077,-0.38809 v -4.057117 c 0,-0.16463 0.047,-0.294016 0.141077,-0.38809 0.09407,-0.09407 0.223461,-0.141077 0.38809,-0.141077 h 6.596496 c 0.16463,0 0.294017,0.047 0.388091,0.141077 0.09407,0.09407 0.141076,0.22346 0.141076,0.38809 v 6.491077 c 0,1.43463 -0.329018,2.704732 -0.987536,3.810103 -0.635001,1.081853 -1.540704,1.916793 -2.71663,2.504757 -1.152408,0.587963 -2.492756,0.882116 -4.02146,0.882116 -2.328335,0 -4.197848,-0.64693 -5.60896,-1.94045 C 27.640345,43.280756 26.93479,41.528492 26.93479,39.341268 V 28.440641 c 0,-2.187224 0.705555,-3.92735 2.116667,-5.22087 1.411112,-1.293519 3.280625,-1.94045 5.60896,-1.94045 z" />
  </g>
</svg>
